# xmcd CD database file
#
# Track frame offsets:
#	150
#	30482
#	58632
#	79455
#	97427
#	122675
#	149352
#	180962
#
# Disc length: 2684 seconds
#
# Revision: 9
# Processed by: cddbd v1.5.2PL0 Copyright (c) Steve Scherf et al.
# Submitted via: CDex 1.51
#
DISCID=6c0a7a08
DTITLE=Prince - The Legendary Black Album
DYEAR=1994
DGENRE=Pop/Funk
TTITLE0=Le Grind
TTITLE1=Cindy C.
TTITLE2=Dead On It
TTITLE3=When 2 R In Love
TTITLE4=Bob George
TTITLE5=Superfunkycalifragisexy
TTITLE6=2 Nigs United 4 West Compton
TTITLE7=Rockhard In A Funky Place
EXTD=Limited Edition YEAR: 1994
EXTT0=
EXTT1=
EXTT2=
EXTT3=
EXTT4=
EXTT5=
EXTT6=
EXTT7=
PLAYORDER=
